# xmcd CD database file
#
# Track frame offsets:
#	150
#	20110
#	41532
#
# Disc length: 864 seconds
#
# Revision: 0
# Processed by: cddbd v1.5.1PL0 Copyright (c) Steve Scherf et al.
# Submitted via: CDex 1.51
#
DISCID=1f035e03
DTITLE=The Gospellers - パスワード
DYEAR=1999
DGENRE=JPop
TTITLE0=パスワード
TTITLE1=シークレット
TTITLE2=LOVE MACHINE
EXTD=YEAR: 1999
EXTT0=
EXTT1=
EXTT2=
PLAYORDER=
